<svg width="51" height="51" viewBox="0 0 51 51" fill="none" xmlns="http://www.w3.org/2000/svg">
<g id="carbon:add-filled">
<path id="Vector" d="M26 10C21.7725 10.0513 17.7325 11.7535 14.743 14.743C11.7535 17.7325 10.0513 21.7725 10 26C10.0513 30.2275 11.7535 34.2675 14.743 37.257C17.7325 40.2465 21.7725 41.9487 26 42C30.2275 41.9487 34.2675 40.2465 37.257 37.257C40.2465 34.2675 41.9487 30.2275 42 26C41.9487 21.7725 40.2465 17.7325 37.257 14.743C34.2675 11.7535 30.2275 10.0513 26 10ZM35.1429 27.1429H27.1429V35.1429H24.8571V27.1429H16.8571V24.8571H24.8571V16.8571H27.1429V24.8571H35.1429V27.1429Z" fill="black"/>
</g>
</svg>
