<svg width="28" height="28" viewBox="0 0 28 28" fill="none" xmlns="http://www.w3.org/2000/svg">
<g id="&#240;&#159;&#166;&#134; icon &#34;Password&#34;">
<path id="Vector" fill-rule="evenodd" clip-rule="evenodd" d="M21.0154 17.6428C21.595 17.6428 22.0654 17.1724 22.0654 16.5928V14C22.0654 13.4204 21.595 12.95 21.0154 12.95H13.0466C12.593 11.4562 11.2182 10.3586 9.57738 10.3586C7.56979 10.3586 5.93599 11.9924 5.93599 14C5.93599 16.009 7.56979 17.6428 9.57738 17.6428C11.2182 17.6428 12.593 16.5452 13.0466 15.05H16.0034V16.5928C16.0034 17.1724 16.4738 17.6428 17.0534 17.6428C17.633 17.6428 18.1034 17.1724 18.1034 16.5928V15.05H19.9654V16.5928C19.9654 17.1724 20.4358 17.6428 21.0154 17.6428ZM7.93238 0H20.069C24.8122 0 28 3.32919 28 8.28378V19.7176C28 24.6722 24.8122 28 20.0676 28H7.93238C3.18779 28 0 24.6722 0 19.7176V8.28378C0 3.32919 3.18779 0 7.93238 0ZM8.03472 14.0013C8.03472 13.1501 8.72772 12.4585 9.57752 12.4585C10.4273 12.4585 11.1203 13.1501 11.1203 14.0013C11.1203 14.8511 10.4273 15.5427 9.57752 15.5427C8.72772 15.5427 8.03472 14.8511 8.03472 14.0013Z" fill="black"/>
</g>
</svg>
